<svg width="47" height="56" viewBox="0 0 47 56" fill="none" xmlns="http://www.w3.org/2000/svg">
<path d="M1.62722 21.7508C1.62722 21.7507 1.11658 21.5196 1.11658 22.1051V47.8216C1.11658 48.6047 4.17637 49.1315 4.68695 49.3011C6.52018 49.9096 18.1465 53.2287 22.0682 54.4141C22.9458 54.6795 23.7934 54.7982 24.6727 55.0572L24.7075 27.1165L2.30269 21.4883L1.62722 21.7508Z" fill="url(#paint0_linear)"/>
<path d="M46.6156 22.3936L46.3231 48.7776L24.6733 55.0579V26.9831L46.6156 22.3936Z" fill="url(#paint1_linear)"/>
<path opacity="0.6" d="M26.1763 28.101L34.8361 30.9238L45.3568 23.3027L35.3372 32.4762L26.1763 28.101Z" fill="#AA1F1F"/>
<path opacity="0.3" d="M35.6233 43.2041L25.4556 54.7431L35.6233 46.5912L45.5 49.061L35.6233 43.2041Z" fill="#5B0909"/>
<path style="mix-blend-mode:multiply" opacity="0.6" d="M41.6273 47.505L39.6427 48.0918L38.849 50.3464L37.8245 48.2787L35.7358 48.1023L37.17 46.3243L36.747 44.0381L38.6299 44.9772L40.4415 43.7246L40.1336 46.0442L41.6273 47.505Z" fill="url(#paint2_linear)"/>
<path d="M44.8494 21.4896C42.8477 20.9817 40.8319 20.5029 38.8338 19.9761C35.4422 19.0821 32.0258 18.2865 28.6288 17.422C26.0057 16.7545 23.7254 16.3046 21.0672 16.9767C19.3324 17.4152 17.558 17.7279 15.8092 18.1103C11.8703 18.9716 7.92332 19.8001 3.97953 20.6396C3.07063 20.833 2.16172 21.0268 1.25281 21.2212L24.6153 27.2928L41.4222 23.2398L46.0721 22.2453L44.8494 21.4896Z" fill="#DD3636"/>
<path d="M46.5731 22.5967L32.4023 34.4515V44.4718L46.2885 48.9471L46.5731 22.5967Z" fill="#D33737"/>
<path d="M34.3262 37.8942C36.6735 36.6495 44.7907 32.6327 46.4734 31.8129L46.5152 27.9424C44.9727 28.5682 35.9182 32.6294 34.9517 32.8841L32.4023 34.4524V38.8295C33.0521 38.5349 33.6963 38.2282 34.3262 37.8942Z" fill="url(#paint3_linear)"/>
<path style="mix-blend-mode:multiply" opacity="0.6" d="M40.9237 44.5339L38.7707 43.4775L36.2825 44.7653L37.0802 42.2121L35.4534 40.4277L38.0999 40.0447L39.5831 37.7773L40.4211 40.0468L42.9641 40.4045L40.8352 42.1277L40.9237 44.5339Z" fill="url(#paint4_linear)"/>
<path opacity="0.4" d="M35.8384 31.4185C35.8384 31.4185 37.7708 31.9829 38.1287 33.8882C38.4865 35.7935 40.7766 43.5555 36.411 45.8842L34.4786 44.9669L33.906 33.2531L35.8384 31.4185Z" fill="#AA1F1F"/>
<path d="M24.4723 27.2217L39.4161 32.5474L39.5594 41.3678L25.3665 54.6096L24.4583 54.5635L24.4723 27.2217Z" fill="url(#paint5_linear)"/>
<path style="mix-blend-mode:multiply" opacity="0.6" d="M32.1102 37.6412L29.7968 36.9924L27.5912 38.7089L27.8995 36.0546L25.968 34.5951L28.4982 33.7394L29.5337 31.2422L30.7804 33.3212L33.3468 33.2122L31.575 35.2917L32.1102 37.6412Z" fill="url(#paint6_linear)"/>
<path style="mix-blend-mode:multiply" opacity="0.3" d="M3.5929 31.4461L5.90622 30.7483L8.11208 32.5947L7.80349 29.7397L9.73511 28.1699L7.20481 27.2495L6.16925 24.5635L4.92268 26.7996L2.3562 26.6824L4.1281 28.9191L3.5929 31.4461Z" fill="url(#paint7_linear)"/>
<path style="mix-blend-mode:multiply" opacity="0.6" d="M36.6448 41.4523L35.1853 41.8064L34.5268 43.4119L33.8609 41.8766L32.354 41.6738L33.4589 40.4366L33.2367 38.7644L34.5664 39.5127L35.9253 38.6699L35.6167 40.3399L36.6448 41.4523Z" fill="url(#paint8_linear)"/>
<path style="mix-blend-mode:multiply" opacity="0.3" d="M3.45923 45.6374L5.18544 46.0561L5.96382 47.9544L6.75145 46.1389L8.53359 45.8993L7.22696 44.4364L7.48962 42.4596L5.91704 43.3441L4.31009 42.3477L4.67522 44.3221L3.45923 45.6374Z" fill="url(#paint9_linear)"/>
<path style="mix-blend-mode:multiply" opacity="0.6" d="M17.0479 37.8911L18.2453 38.835L18.1432 40.5862L19.4432 39.4612L20.9321 39.9147L20.4561 38.3116L21.4049 36.8731L19.8384 36.9947L18.9515 35.6455L18.4962 37.3075L17.0479 37.8911Z" fill="url(#paint10_linear)"/>
<path style="mix-blend-mode:multiply" opacity="0.6" d="M16.9141 47.0494L18.6402 47.4681L19.4188 49.3665L20.2062 47.551L21.9883 47.3113L20.6819 45.8485L20.9445 43.8716L19.3719 44.7562L17.7649 43.7598L18.1301 45.7343L16.9141 47.0494Z" fill="url(#paint11_linear)"/>
<path style="mix-blend-mode:multiply" opacity="0.6" d="M12.7363 32.3609L15.2965 32.9819L16.4514 35.7977L17.6194 33.105L20.2628 32.7494L18.3248 30.5798L18.7145 27.6473L16.382 28.9597L13.9984 27.4814L14.5399 30.4102L12.7363 32.3609Z" fill="url(#paint12_linear)"/>
<path style="mix-blend-mode:multiply" opacity="0.4" d="M8.50721 41.2482L10.9358 41.0729L12.7654 43.2213L13.0118 40.5273L15.2304 39.4712L12.9001 38.1109L12.3932 35.4258L10.7244 37.2347L8.20288 36.6073L9.52645 39.0273L8.50721 41.2482Z" fill="url(#paint13_linear)"/>
<path style="mix-blend-mode:multiply" opacity="0.6" d="M41.0174 34.8126L39.5578 35.1667L38.8992 36.7724L38.2335 35.2369L36.7263 35.0342L37.8313 33.7969L37.6091 32.1249L38.9389 32.8732L40.2979 32.0303L39.9892 33.7004L41.0174 34.8126Z" fill="url(#paint14_linear)"/>
<path style="mix-blend-mode:multiply" opacity="0.6" d="M36.5323 27.6617L35.0728 28.0159L34.4143 29.6215L33.7484 28.0861L32.2415 27.8832L33.3462 26.6462L33.1242 24.9739L34.4539 25.7223L35.8128 24.8794L35.5041 26.5494L36.5323 27.6617Z" fill="url(#paint15_linear)"/>
<path d="M21.9533 27.6074C21.9533 27.6074 23.671 28.6659 23.3847 32.4764C23.0984 36.2869 24.2078 54.7747 21.7744 54.3513L23.7426 54.916L24.3866 30.7828C24.3866 30.7828 24.8161 28.0308 21.9533 27.6074Z" fill="#FF4A4A"/>
<path d="M34.6213 32.5912C34.4295 32.5876 34.244 32.5231 34.0922 32.4072C30.8215 33.7643 27.5157 35.0359 24.1749 36.2221C24.1602 38.4788 24.0934 40.9858 24.0063 43.4086C27.805 41.4628 31.5967 39.5141 35.4758 37.7252C36.2031 37.3899 36.9322 37.0586 37.663 36.7312C37.4911 34.7788 36.8634 32.6792 34.6213 32.5912Z" fill="url(#paint16_linear)"/>
<path d="M26.913 27.2092C32.3124 24.917 46.6448 22.9516 46.6448 22.9516C46.8595 21.5403 43.9251 21.3286 43.9251 21.3286C43.9251 21.3286 26.3907 26.3386 24.5298 26.6915C22.6692 27.0443 2.4149 21.0464 2.4149 21.0464C0.339368 21.1169 1.12657 22.0343 1.12657 22.0343C3.27378 21.3992 22.0248 27.3971 23.5279 28.3851C25.0308 29.373 23.4563 54.7761 23.4563 54.7761C24.3867 55.3408 25.4961 54.8081 25.447 54.7347C25.4496 54.7375 25.4524 54.7401 25.4553 54.7426L37.0234 44.6245C37.8366 43.9789 38.8646 43.0783 39.4162 42.2627C40.4338 40.7578 39.8933 33.4894 39.3209 32.5719C38.7483 31.6546 28.323 29.3024 26.1759 28.1028C26.1759 28.1028 26.0864 27.7457 26.913 27.2092ZM26.8916 29.5141C29.0386 30.7842 38.6051 32.078 38.7483 33.56C38.9113 35.2471 39.0672 37.9342 39.1299 39.6285C39.1992 41.4945 36.7508 43.8432 35.4159 45.2114C33.792 46.8753 32.0358 47.8619 30.3259 49.4388C29.1996 50.4774 28.1382 51.5274 26.8841 52.4265C24.913 53.8398 24.8303 51.7297 24.7904 50.1729C24.7373 48.106 24.7056 46.0451 24.6886 43.9782C24.6623 40.8104 24.6877 37.642 24.7412 34.4745C24.7535 33.7436 24.7678 33.0128 24.7842 32.2821C24.7931 31.8753 25.0112 30.8922 24.8277 30.5348C24.8639 30.6054 24.8877 30.6432 24.8877 30.6432C24.8877 30.6432 24.7445 28.2439 26.8916 29.5141Z" fill="#FF4A4A"/>
<path style="mix-blend-mode:multiply" opacity="0.6" d="M27.0662 40.1396L25.3567 41.1997L24.0985 40.492C24.066 41.6985 24.0254 42.9172 23.9805 44.1073L24.4691 44.173L25.3068 46.1043L26.1351 44.0846L27.9714 43.6392L26.6779 42.2402L27.0662 40.1396Z" fill="url(#paint17_linear)"/>
<path style="mix-blend-mode:multiply" opacity="0.6" d="M34.2719 46.3436L31.8294 46.4474L30.5828 44.3682L29.5471 46.8656L27.0171 47.7213L28.9486 49.1807L28.6567 51.6916L34.2719 46.3436Z" fill="url(#paint18_linear)"/>
<path d="M44.5693 23.2338C44.5693 23.2338 46.3586 22.3164 46.2155 26.3385C46.0722 30.3607 45.9292 46.52 45.9292 46.52C45.9292 46.52 46.0007 48.6369 45.4998 49.0604L46.2886 48.949C46.2886 48.949 46.8596 23.0926 46.5733 22.5986C46.287 22.1047 44.5693 23.2338 44.5693 23.2338Z" fill="#FF4A4A"/>
<path style="mix-blend-mode:hard-light" d="M46.4302 23.7269C46.4302 23.7269 46.9313 22.4568 43.7822 22.8801C40.6332 23.3035 27.4286 26.0555 25.8898 27.0435C24.6148 27.8621 26.1045 28.3136 30.1123 30.4305C30.1123 30.4305 25.2814 27.8903 24.6016 28.243C24.01 28.5501 24.2439 33.6764 24.2439 33.6764C24.2439 33.6764 24.029 28.3842 22.4545 27.4669L14.0093 24.5031C14.0093 24.5031 21.5241 26.9376 24.3154 26.9729C25.5671 26.9887 38.1283 23.3741 43.5674 22.4568C44.341 22.3263 46.5018 21.61 46.4302 23.7269Z" fill="url(#paint19_linear)"/>
<path style="mix-blend-mode:hard-light" d="M35.6226 45.4616C35.6226 45.4616 38.9852 42.9021 39.3442 41.7216C40.203 38.8991 39.2727 35.5825 39.2727 35.5825C39.2727 35.5825 39.559 39.9575 38.8433 41.7921C38.3443 43.071 35.6226 45.4616 35.6226 45.4616Z" fill="url(#paint20_linear)"/>
<path style="mix-blend-mode:multiply" opacity="0.6" d="M33.3796 50.5474L32.6187 49.2373L31.9496 50.7892L30.3608 51.3022L31.5551 52.2312L31.4399 53.1131L33.9855 52.3815L33.8587 51.7859L34.9842 50.5014L33.3796 50.5474Z" fill="url(#paint21_linear)"/>
<path style="mix-blend-mode:multiply" opacity="0.6" d="M45.8181 26.9261L43.6176 25.4268L43.573 27.8257L41.2236 29.1566L43.9341 29.8876L44.7779 32.1081L46.3778 30.2889L46.4775 30.2951L46.5159 26.7524L45.8181 26.9261Z" fill="url(#paint22_linear)"/>
<path style="mix-blend-mode:multiply" opacity="0.6" d="M46.4326 35.6121L46.117 35.8078L44.7872 35.0596L45.0094 36.7316L43.9045 37.9688L45.4116 38.1717L46.0775 39.7072L46.3968 38.9279L46.4326 35.6121Z" fill="url(#paint23_linear)"/>
<path style="mix-blend-mode:multiply" opacity="0.6" d="M46.2893 48.9483L46.3175 46.3505L44.191 44.9014L44.1467 47.3008L43.0706 47.9106L46.2893 48.9483Z" fill="url(#paint24_linear)"/>
<path style="mix-blend-mode:multiply" opacity="0.3" d="M2.62376 35.811L1.58826 33.125L1.1167 33.9711V39.3728L1.3252 39.3099L3.53105 41.1563L3.22249 38.3015L5.15399 36.7315L2.62376 35.811Z" fill="url(#paint25_linear)"/>
<path style="mix-blend-mode:multiply" opacity="0.4" d="M12.7558 50.2236L10.3721 48.7451L10.8116 51.1228C12.2178 51.5324 13.7257 51.9702 15.1921 52.3966L14.6987 51.8439L15.0882 48.9111L12.7558 50.2236Z" fill="url(#paint26_linear)"/>
<path style="mix-blend-mode:multiply" opacity="0.6" d="M24.0985 40.6342L22.8121 40.3809L23.6233 42.169L22.4304 43.8628L23.9805 44.1091L24.0985 40.6342Z" fill="url(#paint27_linear)"/>
<path d="M23.5635 54.2813C23.3131 52.7641 23.3847 51.1764 24.2436 45.5312C24.2436 45.5312 23.5703 54.8711 25.6031 54.246C25.6031 54.246 23.7027 55.1243 23.5635 54.2813Z" fill="url(#paint28_linear)"/>
<path opacity="0.4" d="M10.1 20.0918L13.7647 20.7555L18.0285 20.5531L16.7142 21.4199L19.6039 22.2451L14.9003 22.136L12.1744 22.8692L10.8752 21.9104L6.59399 21.5137L10.2466 21.051L10.1 20.0918Z" fill="url(#paint29_linear)"/>
<path d="M22.6949 22.2559L26.3597 22.9196L30.6236 22.7173L29.3091 23.584L32.199 24.4092L27.4952 24.3001L24.7695 25.0333L23.4701 24.0745L19.189 23.6778L22.8416 23.2152L22.6949 22.2559Z" fill="url(#paint30_linear)"/>
<path opacity="0.4" d="M19.827 17.916L22.5449 18.4083L25.7075 18.2581L24.7327 18.9011L26.876 19.513L23.3874 19.4321L21.3656 19.976L20.402 19.2649L17.2267 18.9706L19.9357 18.6274L19.827 17.916Z" fill="url(#paint31_linear)"/>
<path d="M33.377 20.2676L36.0951 20.7599L39.2575 20.6099L38.2826 21.2528L40.4256 21.8647L36.9374 21.7839L34.9155 22.3276L33.9519 21.6165L30.7766 21.3224L33.4858 20.9791L33.377 20.2676Z" fill="url(#paint32_linear)"/>
<path opacity="0.3" d="M32.7823 18.4703C32.1046 18.2861 31.4227 18.2031 30.7697 18.04L30.7985 18.2287L28.9849 18.4585L31.1107 18.6554L31.7559 19.1315L33.1094 18.7674L33.9574 18.787C33.5656 18.679 33.1727 18.5764 32.7823 18.4703Z" fill="url(#paint33_linear)"/>
<path opacity="0.5" d="M13.8658 51.7408L14.6193 51.9728V26.1966C14.6193 26.1966 14.51 24.5735 16.8002 24.0796L14.2953 24.6442C14.2953 24.6442 13.1501 24.6442 13.3648 26.6905C13.5796 28.7369 13.8658 51.7408 13.8658 51.7408Z" fill="#5B0909"/>
<path d="M13.699 52.0463L13.8421 25.6552C13.8421 25.6552 13.7467 24.6202 14.701 24.4321C15.6551 24.2439 36.7442 19.0692 36.7442 19.0692L30.303 17.4697L9.45244 22.8326C9.45244 22.8326 8.68909 22.9267 8.68909 24.338V50.541L13.699 52.0463Z" fill="url(#paint34_linear)"/>
<path d="M27.6768 21.105C21.8903 22.5008 15.3465 24.0891 14.6587 24.2977C13.3853 24.684 13.5337 25.9853 13.5558 26.1366V52.0468H13.8421V26.1261L13.8398 26.1013C13.831 26.0525 13.6363 24.9031 14.7429 24.5674C15.4126 24.3644 21.8999 22.7897 27.6637 21.3991C27.6513 21.3011 27.6557 21.2016 27.6768 21.105Z" fill="#FFC969"/>
<path opacity="0.5" d="M33.5098 52.3028L32.7564 52.5347V26.7584C32.7564 26.7584 32.8657 25.1355 30.5756 24.6416L33.0805 25.206C33.0805 25.206 34.2256 25.206 34.0109 27.2525C33.7962 29.2988 33.5098 52.3028 33.5098 52.3028Z" fill="#5B0909"/>
<path d="M33.6766 52.6119L33.5336 26.2207C33.5336 26.2207 33.6287 25.1857 32.6746 24.9975C31.7205 24.8094 10.2018 19.0701 10.2018 19.0701L16.6431 17.7529L37.923 23.3982C37.923 23.3982 38.6864 23.4922 38.6864 24.9034V51.1064L33.6766 52.6119Z" fill="url(#paint35_linear)"/>
<path d="M33.534 52.6114H33.8202V26.7012C33.8422 26.5498 33.9907 25.2486 32.7173 24.8623C31.4866 24.489 11.2288 19.2774 10.3792 19.0737L10.3116 19.348C10.5195 19.3979 31.4108 24.7612 32.6332 25.132C33.7397 25.4678 33.5452 26.6171 33.5361 26.6659L33.534 26.6907V52.6114Z" fill="#E55C00"/>
<path opacity="0.3" d="M14.3673 23.2342L20.5938 21.8226L16.7291 20.905C16.7291 20.905 14.7252 21.752 14.3673 23.2342Z" fill="#5B0909"/>
<path opacity="0.3" d="M10.4305 22.5286C10.4305 22.5286 9.85789 25.2811 14.0089 25.4222L10.4305 22.5286Z" fill="#5B0909"/>
<path opacity="0.3" d="M20.7305 19.2106C18.8752 18.7164 13.2213 19.2105 13.2213 19.2105C13.2213 19.2105 15.583 17.8694 17.3723 17.7284L21.3086 18.6458C21.3086 18.6458 20.9269 19.2629 20.7305 19.2106Z" fill="#5B0909"/>
<path opacity="0.3" d="M34.8355 23.7267L34.1914 22.3858L27.1061 20.4802C27.1061 20.4802 24.1476 19.9361 22.6823 20.2047L20.7419 19.492C20.7419 19.492 18.5177 19.2804 17.0148 20.9036L20.5932 21.8212C20.5932 21.8212 24.6728 22.4564 26.7046 21.6651C26.9351 21.6968 27.1652 21.8668 27.3924 21.8917L34.8355 23.7267Z" fill="#5B0909"/>
<path d="M39.0405 2.67285C35.9908 0.997956 31.4951 3.22237 29.7718 5.39981C26.9661 8.94468 24.4478 14.3776 24.3988 18.9395C25.231 19.2185 26.1145 19.4664 26.9706 19.6607C27.9607 18.2554 28.0349 16.1929 28.8472 14.6662C29.8079 12.8266 31.1045 11.1783 32.6716 9.80438C33.8354 8.79955 34.9247 7.77695 36.5696 8.14247C37.6993 8.39341 39.253 9.93806 38.2444 11.1064C38.2444 11.1064 41.2243 3.87216 39.0405 2.67285Z" fill="url(#paint36_linear)"/>
<path d="M37.0562 1.9668C37.2349 2.017 37.4193 2.0631 37.6065 2.10867C37.4268 2.04818 37.2429 2.00077 37.0562 1.9668Z" fill="#FFE655"/>
<path d="M41.9281 13.3094C41.9535 11.6146 42.1973 9.89035 42.0229 8.20791C41.8578 6.61512 41.5202 4.27508 40.2391 3.15632C39.5473 2.55202 38.544 2.34011 37.6059 2.11133C40.8097 3.19794 39.2517 7.91165 37.7352 9.7866C34.6432 13.609 25.0487 13.7899 24.2548 19.3615L24.6565 20.1597C24.9666 20.2222 25.2674 20.3235 25.5516 20.4611C27.0266 19.6465 29.6838 19.8863 31.1258 19.7886C34.4913 19.5604 37.3344 18.428 40.0104 16.3297C41.3785 15.257 41.9026 15.0334 41.9281 13.3094Z" fill="url(#paint37_linear)"/>
<path d="M25.6774 16.7725L25.4802 16.5679C25.5588 16.4941 27.4596 14.742 31.8259 13.1043C36.3661 11.4012 38.9128 9.68591 39.3687 5.50595C39.5107 4.20238 39.2047 3.2696 38.459 2.73368C37.1843 1.81784 34.9852 2.28539 34.1776 2.63927C34.098 2.67414 34.0047 2.71181 33.899 2.7546C32.2286 3.42897 27.7913 5.22021 24.7627 16.3305L24.4862 16.2572C27.5517 5.01194 32.0841 3.18214 33.7905 2.49331C33.8933 2.45182 33.9839 2.41525 34.0612 2.38139C34.9164 2.00677 37.2528 1.51775 38.6276 2.50555C39.4621 3.10531 39.8071 4.1249 39.6533 5.53611C39.1815 9.86074 36.5743 11.6252 31.9277 13.368C27.6148 14.9858 25.6962 16.7549 25.6774 16.7725Z" fill="url(#paint38_linear)"/>
<g style="mix-blend-mode:hard-light">
<path style="mix-blend-mode:hard-light" d="M38.5327 8.52832C38.3105 8.97293 38.0433 9.39419 37.7353 9.78564C37.2135 10.4307 36.5059 10.9718 35.6873 11.4528C36.5127 11.9616 37.3292 12.4813 38.1631 12.9329C39.3121 13.5554 40.4485 14.2448 41.5581 14.9394C41.8035 14.557 41.9167 14.0852 41.9282 13.3084C41.9436 12.2893 42.0373 11.2596 42.072 10.2348C41.0684 9.77094 38.7178 8.61685 38.5327 8.52832Z" fill="url(#paint39_linear)"/>
</g>
<path d="M22.178 17.9415C20.5792 17.2742 19.2289 15.6461 17.6109 14.7513C15.985 13.8521 14.2999 13.0857 12.8476 11.9045C10.8954 10.3165 8.50104 8.26506 10.3894 5.68466C9.20615 5.60795 4.2766 8.38857 4.92531 8.8586L4.58582 12.0123C5.35 12.9961 5.62923 13.9914 6.77847 14.8063C8.27981 15.8708 10.159 16.5361 11.9319 16.9274C15.3498 17.682 19.114 18.3412 22.2499 19.3307C22.0664 18.8893 22.041 18.3991 22.178 17.9415Z" fill="url(#paint40_linear)"/>
<path d="M21.1211 10.7351C19.9216 6.97007 17.7032 3.1404 13.991 1.23487C12.6557 0.549469 10.533 -0.470604 9.28665 0.242563C7.6806 1.16146 6.42624 3.30152 5.42942 4.78562C4.253 6.53719 3.08948 7.89679 3.62278 10.0731C3.90844 11.2386 4.61944 12.6923 5.40539 13.5384C5.1481 12.152 4.80778 10.4987 5.79152 9.32651C6.89817 8.00788 9.53709 7.67853 11.1649 7.95609C13.869 8.41707 16.1347 11.1495 17.7364 13.1448C18.5113 14.1101 21.3772 18.964 22.0047 19.0073L22.937 18.6186C22.9123 18.5276 22.8879 18.4366 22.8638 18.3457C22.0799 15.9526 21.9218 13.2485 21.1211 10.7351Z" fill="url(#paint41_linear)"/>
<path d="M13.9911 1.23514C13.9887 1.23385 13.9862 1.23267 13.9838 1.23145C13.5915 2.76169 12.5416 7.48957 12.3593 8.31236C13.6386 8.85005 14.8008 9.83749 15.8175 10.9055C16.6183 9.0495 17.6269 7.29206 18.6844 5.55983C17.4883 3.77805 15.9474 2.23935 13.9911 1.23514Z" fill="url(#paint42_linear)"/>
<path d="M20.9508 18.951C20.9228 18.9467 17.8378 18.4819 11.0394 16.8063C8.18841 16.1035 6.30671 15.015 5.44681 13.571C4.81089 12.5033 4.98042 11.6223 5.01463 11.4775C5.0273 7.92695 8.89298 7.69581 9.14919 7.68476C11.657 7.21208 14.489 8.90786 17.5678 12.724C18.9762 14.4808 20.2203 16.3603 21.2848 18.3394L21.1416 18.5982C21.0798 18.4796 14.9378 6.86802 9.19286 7.96392L9.16919 7.96638C9.01124 7.97027 5.30095 8.10088 5.30095 11.4946L5.29595 11.5314C5.29375 11.5396 5.07514 12.3968 5.69939 13.4378C6.26494 14.3807 7.66254 15.6829 11.1088 16.5324C17.8913 18.2043 21.0184 18.735 21.0462 18.7393L20.9508 18.951Z" fill="url(#paint43_linear)"/>
<path d="M11.4963 20.7628C10.4009 22.0882 10.113 22.7774 11.3287 23.7615C12.221 24.4838 13.3339 24.9597 14.2335 25.6529C14.6141 21.1904 19.2023 18.0434 23.0979 19.9161L22.6687 18.2225C19.117 17.1046 13.9857 17.751 11.4963 20.7628Z" fill="url(#paint44_linear)"/>
<path d="M14.3668 25.7479L14.0922 25.4894C14.1017 25.4274 15.0951 19.4227 20.731 19.209L20.742 19.491C15.3407 19.6959 14.3758 25.6881 14.3668 25.7479Z" fill="url(#paint45_linear)"/>
<path d="M25.2455 18.2234L24.5297 20.4815C25.1151 19.6422 28.3845 20.3302 29.432 20.4852C31.4236 20.78 33.868 21.6314 34.6919 23.5441C35.1629 22.3159 34.8671 20.3774 35.9666 19.3451C34.0434 16.1401 28.0902 16.8316 25.2455 18.2234Z" fill="url(#paint46_linear)"/>
<path d="M34.56 23.5979C33.3207 20.6164 27.3507 20.2957 27.2905 20.2928L27.3046 20.0107C27.5575 20.0229 33.5165 20.3433 34.8247 23.4908L34.56 23.5979Z" fill="url(#paint47_linear)"/>
<path d="M22.0724 15.3413C22.2992 16.842 20.6825 19.4989 20.4999 19.5461C21.1425 21.403 23.9607 20.8666 25.6063 20.7505C26.9682 20.6545 27.1794 20.6771 27.4905 19.5051C27.7282 18.6094 27.7112 18.151 27.8681 17.2689C25.8175 15.7524 23.7834 16.7237 22.0724 15.3413Z" fill="url(#paint48_linear)"/>
<path style="mix-blend-mode:hard-light" d="M27.7373 18.1686C27.765 17.9515 27.7928 17.7261 27.8352 17.4645C27.3524 17.3135 23.4401 16.6548 21.9494 16.6191C21.8339 17.0391 21.6852 17.4494 21.5046 17.8462C23.5794 17.8571 25.6804 17.9176 27.7373 18.1686Z" fill="url(#paint49_linear)"/>
<path style="mix-blend-mode:hard-light" d="M38.687 29.2237V26.5056C37.1275 27.3265 35.5372 28.0879 33.9347 28.8256C33.8063 28.8847 33.8143 33.5193 33.9548 33.3945C35.4334 32.079 38.3115 29.5461 38.687 29.2237Z" fill="url(#paint50_linear)"/>
<defs>
<linearGradient id="paint0_linear" x1="0.883699" y1="22.4236" x2="21.1641" y2="48.5053" gradientUnits="userSpaceOnUse">
<stop stop-color="#CE2E2E"/>
<stop offset="0.9949" stop-color="#AA1F1F"/>
</linearGradient>
<linearGradient id="paint1_linear" x1="8045.06" y1="6919.43" x2="8130.55" y2="13830.5" gradientUnits="userSpaceOnUse">
<stop stop-color="#CE2E2E"/>
<stop offset="0.9949" stop-color="#AA1F1F"/>
</linearGradient>
<linearGradient id="paint2_linear" x1="3248.23" y1="1170.75" x2="3505.23" y2="1004.58" gradientUnits="userSpaceOnUse">
<stop stop-color="#CE2E2E"/>
<stop offset="0.9949" stop-color="#AA1F1F"/>
</linearGradient>
<linearGradient id="paint3_linear" x1="31.2784" y1="36.47" x2="49.0355" y2="29.614" gradientUnits="userSpaceOnUse">
<stop stop-color="white" stop-opacity="0.2"/>
<stop offset="1" stop-color="white" stop-opacity="0"/>
</linearGradient>
<linearGradient id="paint4_linear" x1="2293.33" y1="2856.15" x2="2740.1" y2="2940.64" gradientUnits="userSpaceOnUse">
<stop stop-color="#CE2E2E"/>
<stop offset="0.9949" stop-color="#AA1F1F"/>
</linearGradient>
<linearGradient id="paint5_linear" x1="32.1461" y1="31.2311" x2="31.4486" y2="48.0314" gradientUnits="userSpaceOnUse">
<stop offset="0.0051" stop-color="#FF4A4A"/>
<stop offset="1" stop-color="#E24747"/>
</linearGradient>
<linearGradient id="paint6_linear" x1="2143.79" y1="2200.6" x2="2590.69" y2="2200.6" gradientUnits="userSpaceOnUse">
<stop stop-color="#CE2E2E"/>
<stop offset="0.9949" stop-color="#AA1F1F"/>
</linearGradient>
<linearGradient id="paint7_linear" x1="-845.351" y1="1931.12" x2="-1292.27" y2="1931.12" gradientUnits="userSpaceOnUse">
<stop stop-color="#CE2E2E"/>
<stop offset="0.9949" stop-color="#AA1F1F"/>
</linearGradient>
<linearGradient id="paint8_linear" x1="2164.77" y1="780.35" x2="2304.92" y2="699.48" gradientUnits="userSpaceOnUse">
<stop stop-color="#CE2E2E"/>
<stop offset="0.9949" stop-color="#AA1F1F"/>
</linearGradient>
<linearGradient id="paint9_linear" x1="-1412.85" y1="1072.1" x2="-1608.85" y2="958.982" gradientUnits="userSpaceOnUse">
<stop stop-color="#CE2E2E"/>
<stop offset="0.9949" stop-color="#AA1F1F"/>
</linearGradient>
<linearGradient id="paint10_linear" x1="-776.515" y1="242.653" x2="-870.397" y2="105.785" gradientUnits="userSpaceOnUse">
<stop stop-color="#CE2E2E"/>
<stop offset="0.9949" stop-color="#AA1F1F"/>
</linearGradient>
<linearGradient id="paint11_linear" x1="-851.598" y1="1102.6" x2="-1047.6" y2="989.492" gradientUnits="userSpaceOnUse">
<stop stop-color="#CE2E2E"/>
<stop offset="0.9949" stop-color="#AA1F1F"/>
</linearGradient>
<linearGradient id="paint12_linear" x1="-1317.63" y1="632.751" x2="-1748.83" y2="383.898" gradientUnits="userSpaceOnUse">
<stop stop-color="#CE2E2E"/>
<stop offset="0.9949" stop-color="#AA1F1F"/>
</linearGradient>
<linearGradient id="paint13_linear" x1="-1157.97" y1="1544.38" x2="-1579.45" y2="1456.09" gradientUnits="userSpaceOnUse">
<stop stop-color="#CE2E2E"/>
<stop offset="0.9949" stop-color="#AA1F1F"/>
</linearGradient>
<linearGradient id="paint14_linear" x1="2311.8" y1="525.457" x2="2451.97" y2="444.578" gradientUnits="userSpaceOnUse">
<stop stop-color="#CE2E2E"/>
<stop offset="0.9949" stop-color="#AA1F1F"/>
</linearGradient>
<linearGradient id="paint15_linear" x1="2128.74" y1="239.199" x2="2268.9" y2="158.328" gradientUnits="userSpaceOnUse">
<stop stop-color="#CE2E2E"/>
<stop offset="0.9949" stop-color="#AA1F1F"/>
</linearGradient>
<linearGradient id="paint16_linear" x1="4482.29" y1="3053.33" x2="4487.48" y2="3794.9" gradientUnits="userSpaceOnUse">
<stop stop-color="white" stop-opacity="0.2"/>
<stop offset="1" stop-color="white" stop-opacity="0"/>
</linearGradient>
<linearGradient id="paint17_linear" x1="1104.33" y1="2176.64" x2="1235.07" y2="2176.64" gradientUnits="userSpaceOnUse">
<stop stop-color="#CE2E2E"/>
<stop offset="0.9949" stop-color="#AA1F1F"/>
</linearGradient>
<linearGradient id="paint18_linear" x1="2171.76" y1="2966.16" x2="2603.76" y2="2966.16" gradientUnits="userSpaceOnUse">
<stop stop-color="#CE2E2E"/>
<stop offset="0.9949" stop-color="#AA1F1F"/>
</linearGradient>
<linearGradient id="paint19_linear" x1="17.183" y1="29.0377" x2="42.2298" y2="27.4445" gradientUnits="userSpaceOnUse">
<stop offset="0.09694" stop-color="white" stop-opacity="0.39643"/>
<stop offset="0.33674" stop-color="white" stop-opacity="0.6"/>
<stop offset="1" stop-color="white" stop-opacity="0.1"/>
</linearGradient>
<linearGradient id="paint20_linear" x1="40.1592" y1="36.4822" x2="36.1013" y2="47.1024" gradientUnits="userSpaceOnUse">
<stop offset="0.09694" stop-color="white" stop-opacity="0.1"/>
<stop offset="0.5102" stop-color="white" stop-opacity="0.4"/>
<stop offset="0.9949" stop-color="white" stop-opacity="0.1"/>
</linearGradient>
<linearGradient id="paint21_linear" x1="1524.04" y1="1696.8" x2="1699.5" y2="1696.8" gradientUnits="userSpaceOnUse">
<stop stop-color="#CE2E2E"/>
<stop offset="0.9949" stop-color="#AA1F1F"/>
</linearGradient>
<linearGradient id="paint22_linear" x1="2222.93" y1="1621.95" x2="2452.82" y2="1621.95" gradientUnits="userSpaceOnUse">
<stop stop-color="#CE2E2E"/>
<stop offset="0.9949" stop-color="#AA1F1F"/>
</linearGradient>
<linearGradient id="paint23_linear" x1="1141.71" y1="1478.21" x2="1194.17" y2="1478.21" gradientUnits="userSpaceOnUse">
<stop stop-color="#CE2E2E"/>
<stop offset="0.9949" stop-color="#AA1F1F"/>
</linearGradient>
<linearGradient id="paint24_linear" x1="1430.77" y1="1622.31" x2="1517.3" y2="1622.31" gradientUnits="userSpaceOnUse">
<stop stop-color="#CE2E2E"/>
<stop offset="0.9949" stop-color="#AA1F1F"/>
</linearGradient>
<linearGradient id="paint25_linear" x1="336.356" y1="2510.89" x2="470.146" y2="2510.89" gradientUnits="userSpaceOnUse">
<stop stop-color="#CE2E2E"/>
<stop offset="0.9949" stop-color="#AA1F1F"/>
</linearGradient>
<linearGradient id="paint26_linear" x1="776.766" y1="1582.61" x2="967.463" y2="1582.61" gradientUnits="userSpaceOnUse">
<stop stop-color="#CE2E2E"/>
<stop offset="0.9949" stop-color="#AA1F1F"/>
</linearGradient>
<linearGradient id="paint27_linear" x1="452.768" y1="1348.63" x2="475.607" y2="1348.63" gradientUnits="userSpaceOnUse">
<stop stop-color="#CE2E2E"/>
<stop offset="0.9949" stop-color="#AA1F1F"/>
</linearGradient>
<linearGradient id="paint28_linear" x1="626.253" y1="3474.37" x2="426.309" y2="4465.11" gradientUnits="userSpaceOnUse">
<stop offset="0.09694" stop-color="white" stop-opacity="0.39643"/>
<stop offset="0.33674" stop-color="white" stop-opacity="0.6"/>
<stop offset="1" stop-color="white" stop-opacity="0.1"/>
</linearGradient>
<linearGradient id="paint29_linear" x1="1727.54" y1="367.173" x2="3099.9" y2="248.861" gradientUnits="userSpaceOnUse">
<stop stop-color="#CE2E2E"/>
<stop offset="0.9949" stop-color="#AA1F1F"/>
</linearGradient>
<linearGradient id="paint30_linear" x1="3062.31" y1="331.33" x2="4434.69" y2="213.016" gradientUnits="userSpaceOnUse">
<stop stop-color="#CE2E2E"/>
<stop offset="0.9949" stop-color="#AA1F1F"/>
</linearGradient>
<linearGradient id="paint31_linear" x1="2144.11" y1="173.243" x2="2899.05" y2="108.159" gradientUnits="userSpaceOnUse">
<stop stop-color="#CE2E2E"/>
<stop offset="0.9949" stop-color="#AA1F1F"/>
</linearGradient>
<linearGradient id="paint32_linear" x1="3212.4" y1="145.409" x2="3967.31" y2="80.3272" gradientUnits="userSpaceOnUse">
<stop stop-color="#CE2E2E"/>
<stop offset="0.9949" stop-color="#AA1F1F"/>
</linearGradient>
<linearGradient id="paint33_linear" x1="1603.87" y1="66.3728" x2="1864.33" y2="43.918" gradientUnits="userSpaceOnUse">
<stop stop-color="#CE2E2E"/>
<stop offset="0.9949" stop-color="#AA1F1F"/>
</linearGradient>
<linearGradient id="paint34_linear" x1="23.6063" y1="17.9228" x2="15.201" y2="52.672" gradientUnits="userSpaceOnUse">
<stop offset="0.05612" stop-color="#B42F1B"/>
<stop offset="0.15816" stop-color="#F17600"/>
<stop offset="0.26531" stop-color="#FFC82A"/>
<stop offset="0.30782" stop-color="#FABD29"/>
<stop offset="0.53973" stop-color="#E18821"/>
<stop offset="0.74067" stop-color="#CE611C"/>
<stop offset="0.90077" stop-color="#C34A18"/>
<stop offset="1" stop-color="#BF4117"/>
</linearGradient>
<linearGradient id="paint35_linear" x1="23.4939" y1="17.9615" x2="32.0358" y2="53.2753" gradientUnits="userSpaceOnUse">
<stop offset="0.05612" stop-color="#B42F1B"/>
<stop offset="0.15816" stop-color="#F17600"/>
<stop offset="0.28571" stop-color="#FFE655"/>
<stop offset="0.60204" stop-color="#FFAA00"/>
<stop offset="1" stop-color="#CC5712"/>
</linearGradient>
<linearGradient id="paint36_linear" x1="24.4365" y1="15.6055" x2="41.5325" y2="1.9368" gradientUnits="userSpaceOnUse">
<stop offset="0.05612" stop-color="#B42F1B"/>
<stop offset="0.32653" stop-color="#F17600"/>
<stop offset="0.64796" stop-color="#F1AB26"/>
<stop offset="0.7376" stop-color="#E08821"/>
<stop offset="0.85175" stop-color="#CE611C"/>
<stop offset="0.94326" stop-color="#C34A18"/>
<stop offset="1" stop-color="#BF4117"/>
</linearGradient>
<linearGradient id="paint37_linear" x1="25.1827" y1="17.1514" x2="43.7063" y2="6.26334" gradientUnits="userSpaceOnUse">
<stop offset="0.19898" stop-color="#E96640"/>
<stop offset="0.51016" stop-color="#FFC82A"/>
<stop offset="0.51818" stop-color="#FFC92C"/>
<stop offset="0.6545" stop-color="#FFDE4A"/>
<stop offset="0.73172" stop-color="#FFE655"/>
<stop offset="0.85167" stop-color="#F3BF3F"/>
<stop offset="0.98009" stop-color="#D36A1E"/>
</linearGradient>
<linearGradient id="paint38_linear" x1="24.4862" y1="9.34818" x2="39.6889" y2="9.34818" gradientUnits="userSpaceOnUse">
<stop stop-color="#F17600"/>
<stop offset="0.38265" stop-color="#FFC82A"/>
<stop offset="0.3954" stop-color="#FFC92C"/>
<stop offset="0.612" stop-color="#FFDE4A"/>
<stop offset="0.73469" stop-color="#FFE655"/>
<stop offset="1" stop-color="#FFD394"/>
</linearGradient>
<linearGradient id="paint39_linear" x1="1898.58" y1="1046.03" x2="2877.85" y2="479.561" gradientUnits="userSpaceOnUse">
<stop offset="0.09694" stop-color="white" stop-opacity="0.39643"/>
<stop offset="0.33674" stop-color="white" stop-opacity="0.6"/>
<stop offset="1" stop-color="white" stop-opacity="0.1"/>
</linearGradient>
<linearGradient id="paint40_linear" x1="2232.9" y1="986.648" x2="3958.91" y2="2611.36" gradientUnits="userSpaceOnUse">
<stop offset="0.05612" stop-color="#B42F1B"/>
<stop offset="0.32653" stop-color="#F17600"/>
<stop offset="0.64796" stop-color="#F1AB26"/>
<stop offset="0.7376" stop-color="#E08821"/>
<stop offset="0.85175" stop-color="#CE611C"/>
<stop offset="0.94326" stop-color="#C34A18"/>
<stop offset="1" stop-color="#BF4117"/>
</linearGradient>
<linearGradient id="paint41_linear" x1="0.295707" y1="1.25587" x2="23.7593" y2="16.8384" gradientUnits="userSpaceOnUse">
<stop offset="0.12245" stop-color="#F8A116"/>
<stop offset="0.27551" stop-color="#D56F1F"/>
<stop offset="0.42059" stop-color="#EEA526"/>
<stop offset="0.51016" stop-color="#FFC82A"/>
<stop offset="0.51818" stop-color="#FFC92C"/>
<stop offset="0.6545" stop-color="#FFDE4A"/>
<stop offset="0.73172" stop-color="#FFE655"/>
<stop offset="0.85167" stop-color="#F3BF3F"/>
<stop offset="1" stop-color="#D36A1E"/>
</linearGradient>
<linearGradient id="paint42_linear" x1="608.997" y1="-160.479" x2="2089.96" y2="474.968" gradientUnits="userSpaceOnUse">
<stop offset="0.09694" stop-color="white" stop-opacity="0.39643"/>
<stop offset="0.33674" stop-color="white" stop-opacity="0.6"/>
<stop offset="1" stop-color="white" stop-opacity="0.1"/>
</linearGradient>
<linearGradient id="paint43_linear" x1="1875.73" y1="1258.95" x2="4060.89" y2="1258.95" gradientUnits="userSpaceOnUse">
<stop stop-color="#F17600"/>
<stop offset="0.38265" stop-color="#FFC82A"/>
<stop offset="0.3954" stop-color="#FFC92C"/>
<stop offset="0.612" stop-color="#FFDE4A"/>
<stop offset="0.73469" stop-color="#FFE655"/>
<stop offset="1" stop-color="#FFD394"/>
</linearGradient>
<linearGradient id="paint44_linear" x1="21.3501" y1="17.4238" x2="10.7023" y2="24.8229" gradientUnits="userSpaceOnUse">
<stop offset="0.05612" stop-color="#B42F1B"/>
<stop offset="0.34694" stop-color="#F17600"/>
<stop offset="0.71429" stop-color="#FFC82A"/>
<stop offset="0.72445" stop-color="#FFC92C"/>
<stop offset="0.8971" stop-color="#FFDE4A"/>
<stop offset="0.9949" stop-color="#FFE655"/>
</linearGradient>
<linearGradient id="paint45_linear" x1="1649.32" y1="1080.5" x2="1245.61" y2="1362.41" gradientUnits="userSpaceOnUse">
<stop stop-color="#F17600"/>
<stop offset="0.38265" stop-color="#FFC82A"/>
<stop offset="0.3954" stop-color="#FFC92C"/>
<stop offset="0.612" stop-color="#FFDE4A"/>
<stop offset="0.73469" stop-color="#FFE655"/>
<stop offset="1" stop-color="#FFD394"/>
</linearGradient>
<linearGradient id="paint46_linear" x1="3172.12" y1="1110.99" x2="4245.77" y2="1110.99" gradientUnits="userSpaceOnUse">
<stop offset="0.05612" stop-color="#B42F1B"/>
<stop offset="0.34694" stop-color="#F17600"/>
<stop offset="0.71429" stop-color="#FFC82A"/>
<stop offset="0.72445" stop-color="#FFC92C"/>
<stop offset="0.8971" stop-color="#FFDE4A"/>
<stop offset="0.9949" stop-color="#FFE655"/>
</linearGradient>
<linearGradient id="paint47_linear" x1="2271.51" y1="669.7" x2="2737.44" y2="669.7" gradientUnits="userSpaceOnUse">
<stop stop-color="#F17600"/>
<stop offset="0.38265" stop-color="#FFC82A"/>
<stop offset="0.3954" stop-color="#FFC92C"/>
<stop offset="0.612" stop-color="#FFDE4A"/>
<stop offset="0.73469" stop-color="#FFE655"/>
<stop offset="1" stop-color="#FFD394"/>
</linearGradient>
<linearGradient id="paint48_linear" x1="23.0737" y1="23.0493" x2="25.2152" y2="14.6634" gradientUnits="userSpaceOnUse">
<stop stop-color="#F89D14"/>
<stop offset="0.03658" stop-color="#E78117"/>
<stop offset="0.08532" stop-color="#D46219"/>
<stop offset="0.13289" stop-color="#C64C1B"/>
<stop offset="0.17836" stop-color="#BE3F1D"/>
<stop offset="0.21939" stop-color="#BB3A1D"/>
<stop offset="0.26302" stop-color="#C0401B"/>
<stop offset="0.32198" stop-color="#CD5116"/>
<stop offset="0.38936" stop-color="#E36D0E"/>
<stop offset="0.43367" stop-color="#F48408"/>
<stop offset="0.65306" stop-color="#FFC82A"/>
<stop offset="0.66544" stop-color="#FFC92C"/>
<stop offset="0.87576" stop-color="#FFDE4A"/>
<stop offset="0.9949" stop-color="#FFE655"/>
</linearGradient>
<linearGradient id="paint49_linear" x1="1779.52" y1="232.218" x2="1776.9" y2="296.393" gradientUnits="userSpaceOnUse">
<stop offset="0.09694" stop-color="white" stop-opacity="0.39643"/>
<stop offset="0.33674" stop-color="white" stop-opacity="0.6"/>
<stop offset="1" stop-color="white" stop-opacity="0.1"/>
</linearGradient>
<linearGradient id="paint50_linear" x1="-2277.63" y1="954.086" x2="-1640.72" y2="2782.77" gradientUnits="userSpaceOnUse">
<stop offset="0.09694" stop-color="white" stop-opacity="0.39643"/>
<stop offset="0.33674" stop-color="white" stop-opacity="0.6"/>
<stop offset="1" stop-color="white" stop-opacity="0.1"/>
</linearGradient>
</defs>
</svg>
