<svg width="32" height="32" viewBox="0 0 32 32" fill="none" xmlns="http://www.w3.org/2000/svg">
<path d="M30.375 0.375H1.625C0.933594 0.375 0.375 0.933594 0.375 1.625V30.375C0.375 31.0664 0.933594 31.625 1.625 31.625H30.375C31.0664 31.625 31.625 31.0664 31.625 30.375V1.625C31.625 0.933594 31.0664 0.375 30.375 0.375ZM20.375 10.8789C20.375 11.2773 20.1836 11.6562 19.8594 11.8906L14.1797 16L19.8594 20.1094C20.1836 20.3438 20.375 20.7188 20.375 21.1211V22.9531C20.375 23.207 20.0859 23.3555 19.8789 23.207L10.2695 16.2539C10.2296 16.2251 10.1971 16.1873 10.1747 16.1435C10.1522 16.0997 10.1405 16.0512 10.1405 16.002C10.1405 15.9527 10.1522 15.9042 10.1747 15.8604C10.1971 15.8166 10.2296 15.7788 10.2695 15.75L19.8789 8.79688C20.0859 8.64844 20.375 8.79688 20.375 9.05078V10.8789Z" fill="#C20A0A"/>
</svg>
