<svg width="32" height="32" viewBox="0 0 32 32" fill="none" xmlns="http://www.w3.org/2000/svg">
<path d="M1.625 0.375H30.375C31.0664 0.375 31.625 0.933594 31.625 1.625V30.375C31.625 31.0664 31.0664 31.625 30.375 31.625H1.625C0.933594 31.625 0.375 31.0664 0.375 30.375V1.625C0.375 0.933594 0.933594 0.375 1.625 0.375ZM11.625 10.8789C11.625 11.2773 11.8164 11.6562 12.1406 11.8906L17.8203 16L12.1406 20.1094C11.8164 20.3438 11.625 20.7188 11.625 21.1211V22.9531C11.625 23.207 11.9141 23.3555 12.1211 23.207L21.7305 16.2539C21.7704 16.2251 21.8029 16.1873 21.8253 16.1435C21.8478 16.0997 21.8595 16.0512 21.8595 16.002C21.8595 15.9527 21.8478 15.9042 21.8253 15.8604C21.8029 15.8166 21.7704 15.7788 21.7305 15.75L12.1211 8.79688C11.9141 8.64844 11.625 8.79688 11.625 9.05078V10.8789Z" fill="#C20A0A"/>
</svg>
